<svg height="256" viewBox="0 0 100 100" width="256" xmlns="http://www.w3.org/2000/svg"><rect fill="#84cc16" height="100" rx="20" width="100"/><path d="m50.39 34.7h-10.58v36.19q-.48.21-1.43.39-.94.17-1.99.17-2.17 0-3.09-.8-.9-.81-.9-2.7v-33.25h-12.4q-.34-.49-.59-1.26-.25-.77-.25-1.75 0-1.54.74-2.34.73-.81 1.99-.81h30.46q.28.42.52 1.19.25.77.25 1.68 0 3.29-2.73 3.29zm16.52 10.64v25.55q-.49.21-1.37.39-.87.17-1.92.17-2.03 0-3.01-.76-.98-.78-.98-2.6v-22.96q0-1.75.7-2.83.7-1.09 2.24-2.07 2.02-1.26 5.18-2.1 3.15-.84 6.93-.84 6.16 0 6.16 3.5 0 .84-.28 1.58-.28.73-.63 1.29-.7-.14-1.75-.28-1.05-.14-2.24-.14-2.8 0-5.11.6-2.31.59-3.92 1.5z" fill="#fff"/></svg>